<svg xmlns="http://www.w3.org/2000/svg" width="32" height="32" viewBox="0 0 277 334" fill="none">
  <path fill-rule="evenodd" clip-rule="evenodd" d="M64.8767 21.9673C25.9026 46.4741 0 89.862 0 139.3V333.2H277V139.3C277 62.8084 214.991 0.799805 138.5 0.799805C127.124 0.799805 116.069 2.17131 105.49 4.75798V333.2H64.8765L64.8767 21.9673ZM214.575 178.131C212.561 172.985 209.652 168.509 205.848 164.705C198.911 157.769 191.974 152.286 185.038 148.259C178.101 144.007 169.598 141.881 159.529 141.881C152.816 141.881 145.879 143 138.719 145.238C131.782 147.476 125.293 150.161 119.251 153.293V179.138C124.174 176.9 129.209 175.334 134.355 174.439C139.726 173.32 143.977 172.761 147.11 172.761C154.718 172.761 160.647 174.327 164.899 177.46C169.151 180.369 172.507 184.508 174.968 189.879C177.43 195.249 178.996 201.403 179.667 208.339C180.339 215.276 180.674 222.548 180.674 230.156V333.2H221.623V226.8C221.623 221.43 221.511 215.947 221.288 210.353C221.064 204.759 220.392 199.277 219.274 193.907C218.379 188.312 216.812 183.054 214.575 178.131Z" fill="#755D49"/>
  <path d="M276.824 16.3118C276.824 24.8788 269.879 31.8238 261.312 31.8238C252.745 31.8238 245.8 24.8788 245.8 16.3118C245.8 7.74476 252.745 0.799805 261.312 0.799805C269.879 0.799805 276.824 7.74476 276.824 16.3118Z" fill="#0F0C09"/>
</svg>
